Coordinates
version=1
nRows=12
nColumns=24
inDegrees=yes

Units are S.I. units (second, meters, Newtons, ...)
Angles are in degrees.

endheader
time	pelvis_tilt	pelvis_list	pelvis_rotation	pelvis_tx	pelvis_ty	pelvis_tz	hip_flexion_r	hip_adduction_r	hip_rotation_r	knee_angle_r	ankle_angle_r	subtalar_angle_r	mtp_angle_r	hip_flexion_l	hip_adduction_l	hip_rotation_l	knee_angle_l	ankle_angle_l	subtalar_angle_l	mtp_angle_l	lumbar_extension	lumbar_bending	lumbar_rotation
      0.00000000000000000000	      6.41756235352767490099	     -4.39160147164087355520	     -3.79623549596196063760	      0.60824714455279360603	      1.01668910984103288975	      0.04115103371415485684	    -23.31083099709037043112	      4.23360146151904892520	      6.00336531823291075227	     -7.32431186836896763737	     12.33916581116388755390	      0.00000272555244198399	      0.00000000000000000000	     17.65038742173084429510	     -5.91522706123255392896	     -4.31431224105035404648	     -5.34142343478999404027	     -0.27971634267915190808	      0.00000386545212690481	      0.00000000000000000000	    -24.53385615755756887779	      2.05944937290696250543	      3.13603732828044901026
      0.01700000000000000122	      5.86762619084320480312	     -4.11903190082041525955	     -3.95675726580460063175	      0.60897836252904002929	      1.01555246794078457562	      0.03887720608195090882	    -22.96420994047560881768	      3.74504543872885120592	      6.07867519160256719601	     -9.11754883897721057906	     12.47778463928492875823	      0.00000325178174433484	      0.00000000000000000000	     18.63895106254637923371	     -5.43391155764358391167	     -4.26835955179404091808	     -7.81750814119295878157	     -1.69569087178732269550	      0.00000398349977464928	      0.00000000000000000000	    -23.86098528971508869745	      1.53449604234053427199	      3.02326902400330732590
      0.03300000000000000155	      5.48231795182318837334	     -3.82261143718147389237	     -3.89823152020372987181	      0.61060351626899977973	      1.01468050345794780220	      0.03594653094874524640	    -22.84170565261826268966	      3.27066554166551792804	      5.97137931054131243513	    -10.86257649299400540599	     12.31028463828167041072	      0.00000396594295346903	      0.00000000000000000000	     19.31817506343119461576	     -4.84893674757552606280	     -4.19409616037327204197	    -10.13777931833859824451	     -2.97880494254009287047	      0.00000424764506371412	      0.00000000000000000000	    -23.31402418014502586630	      1.05904077198772794688	      2.81148155147890532746
      0.05000000000000000278	      5.16276013846077130864	     -3.58821381065663880250	     -4.12415247125085748792	      0.61238485034775969051	      1.01418101618429057353	      0.03356804838792796369	    -22.46955123447325775032	      2.79941335486605957783	      6.09865973977091702096	    -13.22484835422691773488	     11.99076629998769227825	      0.00000461416405368055	      0.00000000000000000000	     19.86636159380523025675	     -4.50532772332614683819	     -4.40627831992894325452	    -12.54965390338760755640	     -3.87117409501415732365	      0.00000455164639557298	      0.00000000000000000000	    -22.86726266787165684491	      0.41870288393052074172	      2.58731420033668335634
      0.06700000000000000400	      5.36882720613343789040	     -3.35650503668228106235	     -4.11634049986002459320	      0.61506995642687489756	      1.01486398425734125617	      0.03130641246985040732	    -22.51748421940716937684	      2.40864450281773923024	      5.90481651182796518640	    -15.85014597009350012513	     11.13933241738854462710	      0.00000534498709415914	      0.00000000000000000000	     19.77362754862607374662	     -4.15081810241931847827	     -4.42041426998771491697	    -15.01380269057220040452	     -4.19795386330022246568	      0.00000492294791369222	      0.00000000000000000000	    -22.82432971645427244312	     -0.20895954052320930838	      2.40588760967364567733
      0.08300000000000000433	      5.50141862620278310203	     -3.10533145165904445051	     -3.89900511189230325471	      0.61802263992919737046	      1.01609021112552233568	      0.02840823990562217974	    -22.04839547590782444786	      2.08066012000901556789	      5.26901636369897552470	    -19.19761073723388022927	      9.82449818450101197698	      0.00000622609995446796	      0.00000000000000000000	     19.40226162455692815456	     -3.70314374162466108942	     -4.20201792445050958946	    -16.87201637330557701944	     -4.26031924468609624057	      0.00000493725914400020	      0.00000000000000000000	    -22.73617963940722219718	     -0.78382158983944283381	      2.28309215217504268836
      0.10000000000000000555	      5.79873059060567452860	     -2.77680931597801183841	     -3.86896069261798425387	      0.62103877853448008484	      1.01788256660198994652	      0.02539815623235371425	    -21.07174612760904253150	      1.56055307247194718911	      4.41491795450305701820	    -23.63399058735434365985	      8.01433489486821315495	      0.00000738395581048419	      0.00000000000000000000	     18.76642039910694137461	     -3.24680156156280741442	     -4.30297498935217781479	    -18.77595982670088403665	     -3.78347558853924370581	      0.00000533829862542281	      0.00000000000000000000	    -22.79464187600132163425	     -1.43639489864163105715	      2.13233543354491850152
      0.11700000000000000677	      6.09198030465218298701	     -2.53340051191139536968	     -3.50071093248258513597	      0.62376308415261927376	      1.02024704855703118866	      0.02168954274754700956	    -19.60210886940695829139	      1.11404261162890172443	      2.79778618629798137007	    -28.60966810964199424916	      5.21851364705505282870	      0.00000843901260031607	      0.00000000000000000000	     17.86591333407929127475	     -2.74494509357319449450	     -4.10848043933071060962	    -20.10529188777476150563	     -3.16012603779757395017	      0.00000577257326918113	      0.00000000000000000000	    -22.83825380323962406237	     -1.81892206532997979807	      1.64110689457113156919
      0.13300000000000000711	      6.07981642157240642632	     -2.23618008466317164107	     -3.45735441840248380885	      0.62579319434643820852	      1.02243298146499173029	      0.01846274864055204648	    -17.05657346818755470963	      0.31164698848397426323	      0.89971868682623346025	    -34.44312439891817945181	      1.64978302316703984154	      0.00000927903628569636	      0.00000000000000000000	     17.01207311095538443624	     -2.27944764526946297423	     -4.24146527145485041643	    -20.94026156067598520849	     -2.37339454456077536548	      0.00000612991799943176	      0.00000000000000000000	    -22.63237661754302720851	     -2.33788796786536279271	      1.32203484818538674617
      0.14999999999999999445	      6.08715446381987135283	     -1.85050598547242883818	     -3.49280244427850483646	      0.62702879717461834641	      1.02496753855893873997	      0.01467018667846579742	    -14.14277051299942300489	     -0.95356820509314088596	     -1.35574908343455735604	    -40.35162305773710755830	     -2.56148980619573229944	      0.00000934494100937844	      0.00000000000000000000	     15.79102328290501766617	     -1.64562453060937774474	     -4.49945019297030324168	    -21.02327909234765712654	     -1.62399844613090826861	      0.00000611790365159376	      0.00000000000000000000	    -22.48050559300392237105	     -2.74107957545247415965	      1.22289186621896517337
      0.16700000000000000955	      6.23851106404361654967	     -1.39886805958813975614	     -3.17456784949882608871	      0.62850515604318235585	      1.02775313548321212131	      0.01072471022972672043	    -11.51165152726125207039	     -2.48084139668503089737	     -4.09938272083225552223	    -45.62292975183875398670	     -6.55115084866197427971	      0.00000800785974360105	      0.00000000000000000000	     14.27934500059052780330	     -0.81691026415863610133	     -4.41103303816796898928	    -20.80510898961531296436	     -0.78435632990228620898	      0.00000614504511184761	      0.00000000000000000000	    -22.53897230718983735187	     -3.15399239412794951676	      0.33470401663129845105
      0.18299999999999999600	      6.34044414778198195393	     -0.70738481127402275117	     -3.53234994997317341969	      0.62808603409399310635	      1.03039768338239934309	      0.00696382565526150465	     -8.50444548856465054598	     -4.58674225480578101610	     -6.00377740542721127781	    -50.87703171621916453660	     -9.02599758091498749479	      0.00000578083501659573	      0.00000000000000000000	     12.61178500313902617336	      0.18295762089212244672	     -4.91712467047268830811	    -20.02099860402033471019	     -0.16860904309124710720	      0.00000582106308487605	      0.00000000000000000000	    -22.66848525902220146122	     -3.88108080521467657675	      0.18063639218606886150
